{"title":"Black Sunday(1960)MP-4[DaScubaDude]","uid":12349266,"size":1060972980,"categoryP":"video","categoryS":"movies","magnet":"?xt=urn:btih:61492c19afe91a19c451f6e10304faafda973c97&amp;dn=Black+Sunday%281960%29MP-4%5BDaScubaDude%5D&amp;tr=udp%3A%2F%2Ftracker.openbittorrent.com%3A80&amp;tr=udp%3A%2F%2Fopen.demonii.com%3A1337&amp;tr=udp%3A%2F%2Ftracker.coppersurfer.tk%3A6969&amp;tr=udp%3A%2F%2Fexodus.desync.com%3A6969","seeders":2,"leechers":0,"uploader":"dascuba","files":1,"time":1441397172,"description":"Black Sunday (1960) \n&quot;La maschera del demonio&quot; (original title)\nUnrated  |  87 min  |  Horror  |  15 February 1961 (USA)\n7.4 Your rating:   -/10   Ratings: 7.4/10 from 8,586 users   \nReviews: 104 user | 134 critic\nA vengeful witch and her fiendish servant return from the grave and begin a bloody campaign to possess the body of the witch's beautiful look-alike descendant. Only the girl's brother and a... See full summary Â»\n\nDirector: Mario Bava\nWriters: Ennio De Concini (screenplay), Mario Serandrei (screenplay), 3 more credits Â»\nStars: Barbara Steele, John Richardson, Andrea Checchi \n\nGeneral\nComplete name                            : C:Black SundayBlack Sunday_Title1.mp4\nFormat                                   : MPEG-4\nFormat profile                           : Base Media\nCodec ID                                 : isom\nFile size                                : 1 012 MiB\nDuration                                 : 1h 26mn\nOverall bit rate mode                    : Constant\nOverall bit rate                         : 1 632 Kbps\nMovie name                               : Black_Sunday\nGenre                                    : Horror\nWriting application                      : Lavf54.6.100\n\nVideo\nID                                       : 1\nFormat                                   : MPEG-4 Visual\nFormat settings, BVOP                    : No\nFormat settings, QPel                    : No\nFormat settings, GMC                     : No warppoints\nFormat settings, Matrix                  : Default (H.263)\nCodec ID                                 : 20\nDuration                                 : 1h 26mn\nBit rate mode                            : Constant\nBit rate                                 : 1 498 Kbps\nWidth                                    : 720 pixels\nHeight                                   : 404 pixels\nDisplay aspect ratio                     : 16:9\nFrame rate mode                          : Constant\nFrame rate                               : 29.970 fps\nColor space                              : YUV\nChroma subsampling                       : 4:2:0\nBit depth                                : 8 bits\nScan type                                : Progressive\nCompression mode                         : Lossy\nBits/(Pixel*Frame)                       : 0.172\nStream size                              : 929 MiB (92%)\nWriting library                          : Lavc54.23.100\n\nAudio\nID                                       : 2\nFormat                                   : MPEG Audio\nFormat version                           : Version 1\nFormat profile                           : Layer 3\nCodec ID                                 : 6B\nDuration                                 : 1h 26mn\nBit rate mode                            : Constant\nBit rate                                 : 128 Kbps\nChannel(s)                               : 2 channels\nSampling rate                            : 44.1 KHz\nCompression mode                         : Lossy\nStream size                              : 79.4 MiB (8%)","torrent":{"xt":"urn:btih:61492c19afe91a19c451f6e10304faafda973c97","amp;dn":"Black+Sunday%281960%29MP-4%5BDaScubaDude%5D","amp;tr":["udp%3A%2F%2Ftracker.openbittorrent.com%3A80","udp%3A%2F%2Fopen.demonii.com%3A1337","udp%3A%2F%2Ftracker.coppersurfer.tk%3A6969","udp%3A%2F%2Fexodus.desync.com%3A6969"],"infoHash":"61492c19afe91a19c451f6e10304faafda973c97","infoHashBuffer":{"type":"Buffer","data":[97,73,44,25,175,233,26,25,196,81,246,225,3,4,250,175,218,151,60,151]},"announce":[],"urlList":[]}}